<svg width="188" height="161" viewBox="0 0 188 161" fill="none" xmlns="http://www.w3.org/2000/svg">
<g clip-path="url(#clip0)">
<path d="M47.2906 75.6835C47.5368 77.1073 47.8322 78.5166 48.1766 79.9113C48.214 80.0733 48.2558 80.2328 48.2975 80.3948H53.088C53.496 80.3953 53.8872 80.5737 54.1757 80.8909C54.4642 81.2082 54.6265 81.6383 54.627 82.0869V97.103C54.7721 97.4003 54.9194 97.6952 55.0667 97.9901C55.8273 99.513 56.6188 101.019 57.4279 102.506C70.6203 126.668 89.0201 146.887 111.003 161.378L109.701 158.149C110.178 158.113 110.658 158.076 111.135 158.04C121.523 157.259 131.946 156.394 142.09 153.827C152.702 151.141 163.083 146.483 171.4 138.76C179.719 131.034 185.817 120.002 186.664 108.065C186.946 103.963 186.569 99.8382 185.549 95.8799C183.599 88.2606 179.338 81.4052 173.191 77.349C163.536 70.9795 150.941 72.2776 140.762 77.5763C130.585 82.8725 122.301 91.64 114.213 100.255C122.379 84.8578 133.749 71.8086 147.39 62.1782C151.91 58.9971 156.707 56.164 160.55 52.0426C164.391 47.9236 167.225 42.1487 166.545 36.2965C165.774 29.6587 160.829 24.6211 155.876 20.7365C153.898 19.1846 151.855 17.7125 149.749 16.3588C143.807 12.5299 137.378 9.64121 130.589 8.57036C121.393 7.11758 111.46 9.32214 104.41 15.9745C96.4664 23.4704 93.2083 35.5592 93.5182 47.1234C88.6244 39.3012 81.077 33.3136 72.5535 33.0598C63.7045 32.7987 55.2931 38.9458 50.861 47.3724C46.4309 55.7966 45.6352 66.1232 47.2906 75.6835Z" fill="#6A9F2E"/>
<path d="M103.401 108.159C98.1834 107.657 93.3631 107.07 88.3066 105.506C83.4052 103.991 78.6889 101.453 75.1997 97.3106C71.4469 92.8547 69.421 87.0678 67.9917 81.3072C67.1948 78.0954 66.54 74.8387 65.9222 71.5809C65.2518 68.0461 64.6562 64.4958 64.1353 60.9298C63.0984 53.8316 62.3581 46.6916 61.9145 39.5098C61.8609 38.6381 61.8118 37.766 61.7671 36.8936C61.7394 36.3555 62.5054 36.3572 62.533 36.8936C62.8974 43.9728 63.5529 51.0244 64.4996 58.0484C65.4338 64.9494 66.6291 71.8206 68.1457 78.5979C69.4305 84.3394 71.0939 90.1705 74.3889 94.9501C77.4788 99.432 81.9416 102.361 86.7604 104.112C91.6638 105.894 96.8339 106.606 101.958 107.135C102.586 107.199 102.773 107.261 103.401 107.322C103.889 107.369 103.893 108.206 103.401 108.159L103.401 108.159Z" fill="white"/>
<path d="M185.367 96.6957C178.778 97.0943 172.255 98.3476 165.938 100.429C159.617 102.507 153.544 105.389 147.843 109.018C142.334 112.527 137.22 116.726 132.605 121.529C128.125 126.193 124.133 131.383 120.702 137.005C117.254 142.641 114.397 148.681 112.184 155.011C111.914 155.786 111.654 156.565 111.404 157.348C111.243 157.852 110.502 157.635 110.665 157.125C112.735 150.661 115.465 144.471 118.802 138.671C122.138 132.871 126.054 127.492 130.478 122.632C134.972 117.697 139.973 113.345 145.383 109.661C156.742 101.945 169.617 97.2775 182.952 96.0413C183.756 95.9678 184.561 95.9073 185.367 95.8598C185.86 95.8304 185.859 96.6664 185.367 96.6957L185.367 96.6957Z" fill="white"/>
<path d="M149.578 17.2613C145.392 18.7228 141.423 20.8514 137.8 23.5789C134.098 26.3849 130.721 29.6762 127.745 33.3799C124.609 37.2761 121.821 41.4937 119.419 45.9746C116.872 50.7059 114.658 55.6447 112.799 60.7476C110.885 65.9865 109.275 71.3533 107.978 76.8157C106.661 82.3428 105.631 87.9479 104.896 93.6038C104.164 99.1996 103.721 104.836 103.569 110.487C103.416 115.891 103.561 121.299 104.004 126.683C104.41 131.706 105.15 136.69 106.22 141.594C107.17 146.023 108.508 150.341 110.217 154.487C110.612 155.428 111.032 156.356 111.476 157.271C111.707 157.746 111.049 158.169 110.819 157.693C108.931 153.733 107.423 149.568 106.32 145.266C105.083 140.476 104.186 135.588 103.637 130.646C103.03 125.285 102.733 119.886 102.751 114.483C102.762 108.807 103.07 103.136 103.673 97.4985C104.277 91.7906 105.172 86.1247 106.357 80.5275C107.538 74.9211 109.037 69.401 110.844 63.9992C112.585 58.77 114.67 53.6866 117.083 48.7889C119.381 44.1154 122.059 39.6792 125.084 35.5346C127.956 31.5883 131.236 28.0207 134.857 24.9032C138.349 21.9062 142.208 19.4632 146.32 17.6461C147.325 17.2071 148.343 16.8101 149.376 16.4551C149.845 16.2932 150.045 17.1001 149.578 17.2613H149.578Z" fill="white"/>
<path d="M105.28 95.7387C105.094 96.8147 104.871 97.8797 104.611 98.9337C104.583 99.0561 104.551 99.1767 104.52 99.2991H100.903C100.595 99.2994 100.3 99.4343 100.082 99.674C99.8645 99.9137 99.742 100.239 99.7417 100.578V111.926C99.6321 112.15 99.5209 112.373 99.4097 112.596C98.8355 113.747 98.238 114.885 97.6273 116.009C87.6685 134.268 73.7787 149.548 57.1841 160.5L58.1667 158.059C57.8065 158.032 57.4447 158.004 57.0846 157.977C49.2429 157.387 41.3747 156.733 33.7172 154.793C25.7062 152.763 17.8696 149.243 11.5912 143.406C5.3112 137.568 0.707476 129.231 0.0685075 120.21C-0.144554 117.11 0.140292 113.993 0.909984 111.001C2.382 105.243 5.59839 100.063 10.2387 96.9973C17.5277 92.1838 27.0356 93.1648 34.7196 97.1691C42.402 101.172 48.6554 107.797 54.7612 114.308C48.5965 102.672 40.0134 92.8103 29.7159 85.5325C26.3037 83.1285 22.6825 80.9875 19.7815 77.8729C16.8821 74.76 14.7428 70.3959 15.2557 65.9733C15.8382 60.9569 19.5707 57.1499 23.3098 54.2143C24.8034 53.0415 26.3452 51.929 27.9351 50.906C32.421 48.0124 37.2738 45.8294 42.3986 45.0202C49.3408 43.9223 56.839 45.5883 62.1614 50.6156C68.1575 56.2804 70.617 65.4161 70.3831 74.1554C74.0774 68.2439 79.7748 63.719 86.2092 63.5272C92.8891 63.3299 99.2388 67.9754 102.585 74.3435C105.929 80.7098 106.529 88.5138 105.28 95.7387Z" fill="#A2CB74"/>
<path d="M63.109 120.299C67.0256 119.919 70.6435 119.476 74.4387 118.295C78.1175 117.15 81.6575 115.234 84.2763 112.105C87.0931 108.74 88.6136 104.369 89.6864 100.018C90.2845 97.5918 90.776 95.132 91.2397 92.6714C91.7429 90.0016 92.1899 87.3201 92.5809 84.6267C93.3592 79.2654 93.9148 73.8726 94.2478 68.4482C94.288 67.7898 94.3249 67.1311 94.3584 66.4722C94.3792 66.0657 93.8043 66.067 93.7835 66.4722C93.51 71.8191 93.018 77.1452 92.3074 82.4504C91.6063 87.6627 90.7091 92.8525 89.5708 97.9714C88.6065 102.308 87.358 106.712 84.8849 110.322C82.5657 113.707 79.2161 115.92 75.5992 117.242C71.9189 118.588 68.0384 119.125 64.1926 119.525C63.7208 119.574 63.5811 119.621 63.109 119.667C62.7434 119.702 62.74 120.334 63.109 120.299L63.109 120.299Z" fill="white"/>
<path d="M1.14749 111.566C6.10787 111.867 11.0178 112.812 15.7734 114.383C20.5311 115.949 25.1031 118.124 29.3947 120.861C33.5414 123.507 37.391 126.674 40.8652 130.297C44.2369 133.815 47.2419 137.73 49.8253 141.971C52.4205 146.222 54.5711 150.777 56.237 155.552C56.4402 156.136 56.6358 156.724 56.824 157.314C56.9456 157.695 57.5033 157.531 57.3805 157.147C55.8219 152.271 53.7673 147.602 51.2552 143.227C48.7436 138.852 45.796 134.795 42.4663 131.129C39.0833 127.407 35.3182 124.124 31.2459 121.346C22.6954 115.526 13.0034 112.005 2.96587 111.073C2.36039 111.017 1.75427 110.972 1.1475 110.936C0.776436 110.914 0.777575 111.544 1.1475 111.566L1.14749 111.566Z" fill="white"/>
<path d="M28.0303 51.717C31.2002 52.819 34.2049 54.4239 36.9482 56.4804C39.7513 58.5961 42.3078 61.0777 44.561 63.8703C46.9355 66.808 49.0465 69.988 50.865 73.3666C52.7939 76.9339 54.4696 80.6578 55.8773 84.5053C57.3268 88.4554 58.5459 92.5019 59.5274 96.6205C60.5251 100.788 61.3043 105.014 61.8614 109.279C62.4157 113.498 62.7511 117.748 62.8661 122.009C62.982 126.083 62.8718 130.161 62.5362 134.22C62.2292 138.008 61.6686 141.765 60.8588 145.463C60.1397 148.803 59.1262 152.058 57.8327 155.184C57.533 155.894 57.2151 156.593 56.8788 157.283C56.7044 157.641 57.2021 157.96 57.3768 157.602C58.8064 154.616 59.9479 151.475 60.7829 148.231C61.7197 144.62 62.3988 140.935 62.814 137.208C63.2743 133.166 63.4985 129.095 63.4851 125.021C63.4768 120.742 63.2438 116.466 62.7871 112.215C62.3302 107.912 61.6518 103.639 60.7552 99.4192C59.8607 95.192 58.7261 91.0299 57.358 86.957C56.0393 83.0143 54.4604 79.1814 52.6338 75.4886C50.8941 71.9648 48.8667 68.6199 46.5763 65.4949C44.4011 62.5194 41.9178 59.8295 39.176 57.4789C36.5323 55.2192 33.6108 53.3772 30.4975 52.0071C29.7367 51.6761 28.9654 51.3768 28.1836 51.1091C27.8287 50.9871 27.6769 51.5955 28.0303 51.717H28.0303Z" fill="white"/>
<path d="M166.936 61.6809L161.184 73.2045L143.985 81.1168C142.148 84.2579 136.312 84.4983 135.887 82.467C135.411 80.1882 142.975 76.5205 142.975 76.5205L157.36 66.6741L158.619 58.1976L166.936 61.6809Z" fill="#A0616A"/>
<path d="M166.257 139.013L167.318 147.601L161.165 148.03L160.529 139.013H166.257Z" fill="#A0616A"/>
<path d="M165.409 146.313C165.959 145.724 166.466 145.096 166.927 144.434C167.808 143.199 168.591 149.533 168.591 149.533C168.591 149.533 169.44 152.109 169.227 153.398C169.015 154.686 164.136 154.686 163.287 154.471C162.438 154.256 158.195 154.471 158.195 154.471H151.83C146.314 151.895 151.83 150.177 151.83 150.177C153.528 149.963 159.256 144.595 159.256 144.595L160.529 142.234C161.377 142.019 162.226 145.239 162.226 145.239L165.409 146.313Z" fill="#2F2E41"/>
<path d="M182.169 139.12L183.23 147.708L177.077 148.138L176.441 139.12H182.169Z" fill="#A0616A"/>
<path d="M181.32 146.42C181.87 145.831 182.378 145.204 182.839 144.541C183.72 143.306 184.503 149.64 184.503 149.64C184.503 149.64 185.351 152.002 185.139 153.29C184.927 154.578 180.047 154.578 179.199 154.364C178.35 154.149 174.107 154.578 174.107 154.578H167.742C162.226 152.002 167.742 150.285 167.742 150.285C169.44 150.07 175.168 144.703 175.168 144.703L176.441 142.341C177.289 142.126 178.138 145.347 178.138 145.347L181.32 146.42Z" fill="#2F2E41"/>
<path d="M175.168 83.7295C176.016 84.803 175.592 88.4528 175.592 88.4528C175.592 88.4528 177.077 100.261 176.441 101.334C175.804 102.408 176.865 103.267 177.502 104.77C178.138 106.272 178.775 109.922 178.775 109.922C182.381 112.928 182.169 126.668 182.169 126.668L183.442 138.906C183.018 140.194 177.077 140.409 176.229 140.194C175.38 139.979 172.834 120.657 172.834 120.657L167.106 109.707C167.106 109.707 167.53 138.906 167.53 140.194C167.53 141.482 161.802 140.838 160.529 140.838C159.256 140.838 159.256 119.369 159.256 119.369L157.983 113.787L151.194 88.2381V85.2324L152.255 83.7295C152.255 83.7295 174.319 82.6561 175.168 83.7295Z" fill="#2F2E41"/>
<path d="M165.833 34.994C169.465 34.994 172.41 32.0143 172.41 28.3385C172.41 24.6628 169.465 21.683 165.833 21.683C162.2 21.683 159.256 24.6628 159.256 28.3385C159.256 32.0143 162.2 34.994 165.833 34.994Z" fill="#A0616A"/>
<path d="M162.544 31.4516C163.877 34.4557 163.088 38.6517 160.423 43.2598L171.243 38.1071L169.546 36.6043L169.97 32.3104L162.544 31.4516Z" fill="#A0616A"/>
<path d="M162.544 38.3218C161.127 39.1742 160.28 40.7405 159.793 42.3342C158.893 45.2849 158.35 48.3356 158.179 51.4189L157.665 60.65L151.3 85.125C156.816 89.8483 159.999 88.7748 167.424 84.9103C174.85 81.0458 175.698 86.1985 175.698 86.1985C175.698 86.1985 176.335 85.9838 175.698 85.3397C175.062 84.6956 175.698 85.3397 176.335 84.6956C176.971 84.0515 176.335 84.6956 176.123 84.0515C175.91 83.4074 176.123 83.8369 176.335 83.6222C176.547 83.4075 175.486 81.4752 175.486 81.4752L177.183 65.3732L179.305 42.6157C176.759 39.3953 169.546 36.6042 169.546 36.6042L162.969 41.3275C160.847 42.1863 162.544 38.7512 162.544 38.7512V38.3218Z" fill="#A2D469"/>
<path d="M182.806 56.2487L183.654 69.1303L172.834 84.8029C172.834 88.4527 170.925 89.3115 170.925 89.3115C170.201 88.1435 169.563 86.9236 169.015 85.6617C167.954 83.3001 169.652 81.3678 169.652 81.3678L177.077 65.4805L173.895 57.5368L182.806 56.2487Z" fill="#A0616A"/>
<path d="M179.199 42.723C182.806 44.0112 183.442 57.9663 183.442 57.9663C179.199 55.6047 174.107 59.4691 174.107 59.4691C174.107 59.4691 173.046 55.8194 171.773 51.0961C171.389 49.7675 171.343 48.3621 171.64 47.0107C171.936 45.6593 172.566 44.4059 173.471 43.3671C173.471 43.3671 175.592 41.4349 179.199 42.723Z" fill="#A2D469"/>
<path d="M171.879 30.3781C171.042 29.7003 169.9 30.9324 169.9 30.9324L169.23 24.832C169.23 24.832 165.044 25.3404 162.364 24.6625C159.685 23.9847 159.266 27.1196 159.266 27.1196C159.128 25.8537 159.1 24.5778 159.183 23.3069C159.35 21.7818 161.527 20.2567 165.379 19.24C169.23 18.2232 171.24 22.6291 171.24 22.6291C173.919 23.9847 172.717 31.056 171.879 30.3781Z" fill="#2F2E41"/>
<path d="M142.283 61.3182H67.9911V78.4714H142.283V61.3182Z" fill="#E6E6E6"/>
<path d="M142.283 34.1591H67.9911V51.3122H142.283V34.1591Z" fill="#E6E6E6"/>
<path d="M142.283 7H67.9911V24.1531H142.283V7Z" fill="#E6E6E6"/>
<path d="M73.4338 22.4378H140.65V8.71533H73.4338V22.4378Z" fill="white"/>
<path d="M73.4338 49.597H140.65V36.1603H73.4338V49.597Z" fill="white"/>
<path d="M73.4338 76.7561H140.65V63.0336H73.4338V76.7561Z" fill="white"/>
<path d="M96.4044 71.1111H95.9332L94.1436 68.3718V71.1111H93.6724V67.5564H94.1436L95.938 70.3079V67.5564H96.4044V71.1111ZM97.0464 69.7659C97.0464 69.5071 97.0969 69.2743 97.1978 69.0676C97.3004 68.8609 97.442 68.7014 97.6226 68.5891C97.8049 68.4768 98.0124 68.4207 98.2452 68.4207C98.6049 68.4207 98.8954 68.5452 99.1168 68.7942C99.3397 69.0432 99.4512 69.3744 99.4512 69.7878V69.8196C99.4512 70.0767 99.4016 70.3079 99.3023 70.5129C99.2047 70.7164 99.0639 70.8751 98.8799 70.989C98.6977 71.1029 98.4877 71.1599 98.2501 71.1599C97.892 71.1599 97.6015 71.0354 97.3785 70.7864C97.1571 70.5374 97.0464 70.2078 97.0464 69.7976V69.7659ZM97.5005 69.8196C97.5005 70.1125 97.5681 70.3477 97.7032 70.5251C97.8399 70.7026 98.0222 70.7913 98.2501 70.7913C98.4796 70.7913 98.6618 70.7017 98.7969 70.5227C98.932 70.342 98.9996 70.0898 98.9996 69.7659C98.9996 69.4762 98.9304 69.2418 98.7921 69.0627C98.6553 68.8821 98.473 68.7917 98.2452 68.7917C98.0222 68.7917 97.8423 68.8805 97.7056 69.0579C97.5689 69.2353 97.5005 69.4892 97.5005 69.8196ZM100.027 70.8743C100.027 70.7961 100.05 70.731 100.096 70.679C100.143 70.6269 100.213 70.6008 100.306 70.6008C100.398 70.6008 100.468 70.6269 100.516 70.679C100.565 70.731 100.589 70.7961 100.589 70.8743C100.589 70.9491 100.565 71.0118 100.516 71.0623C100.468 71.1127 100.398 71.1379 100.306 71.1379C100.213 71.1379 100.143 71.1127 100.096 71.0623C100.05 71.0118 100.027 70.9491 100.027 70.8743ZM105.379 71.1111H104.908V69.468H103.116V71.1111H102.647V67.5564H103.116V69.0847H104.908V67.5564H105.379V71.1111ZM106.68 69.7195V71.1111H106.211V67.5564H107.523C107.912 67.5564 108.216 67.6557 108.436 67.8542C108.657 68.0528 108.768 68.3157 108.768 68.6428C108.768 68.9879 108.659 69.254 108.443 69.4412C108.228 69.6267 107.92 69.7195 107.518 69.7195H106.68ZM106.68 69.3362H107.523C107.773 69.3362 107.965 69.2776 108.099 69.1604C108.232 69.0416 108.299 68.8707 108.299 68.6477C108.299 68.4361 108.232 68.2668 108.099 68.1399C107.965 68.0129 107.782 67.947 107.549 67.9421H106.68V69.3362Z" fill="#797979"/>
<path d="M82.9384 20.3946C85.6326 20.3946 87.8167 18.1 87.8167 15.2696C87.8167 12.4392 85.6326 10.1447 82.9384 10.1447C80.2442 10.1447 78.0601 12.4392 78.0601 15.2696C78.0601 18.1 80.2442 20.3946 82.9384 20.3946Z" fill="#7DBB37"/>
<path d="M82.9384 47.8172C85.6326 47.8172 87.8167 45.5227 87.8167 42.6922C87.8167 39.8618 85.6326 37.5673 82.9384 37.5673C80.2442 37.5673 78.0601 39.8618 78.0601 42.6922C78.0601 45.5227 80.2442 47.8172 82.9384 47.8172Z" fill="#CCCCCC"/>
<path d="M134.391 43.8793H92.7551V45.0228H134.391V43.8793Z" fill="#CCCCCC"/>
<path d="M133.303 17.5778H91.3945V18.7213H133.303V17.5778Z" fill="#AED582"/>
<path d="M82.9384 74.9278C85.6326 74.9278 87.8167 72.6333 87.8167 69.8028C87.8167 66.9724 85.6326 64.6779 82.9384 64.6779C80.2441 64.6779 78.06 66.9724 78.06 69.8028C78.06 72.6333 80.2441 74.9278 82.9384 74.9278Z" fill="#CCCCCC"/>
<path d="M134.391 70.7525H92.7551V71.8961H134.391V70.7525Z" fill="#CCCCCC"/>
<path d="M34.8759 65.0431C34.8759 65.0431 33.8303 71.9476 38.162 71.3199C38.162 71.3199 55.3398 67.24 56.236 68.1815C57.1322 69.123 62.704 69.4435 62.4134 65.4741C62.1217 61.4913 56.5348 63.7877 56.5348 63.7877C56.5348 63.7877 47.8712 65.0431 46.0787 64.1015C44.2863 63.16 39.2076 63.4738 39.2076 63.4738L34.8759 65.0431Z" fill="#FFB8B8"/>
<path d="M47.9845 87.5594L45.6027 111.301C45.6027 111.301 44.8558 120.716 42.6152 122.756C42.6152 122.756 42.6152 125.738 41.8684 126.679L40.8228 139.076C40.8228 139.076 42.3165 143.627 42.1671 144.412C42.0177 145.196 42.7646 147.707 42.6152 148.021C42.4658 148.335 35.4454 148.021 35.4454 148.021L36.9391 122.756L41.5696 87.6059L47.9845 87.5594Z" fill="#4E4E4E"/>
<path d="M34.8982 146.737C34.8982 146.737 31.7656 155.036 33.4 156.038C35.0344 157.039 52.1956 156.324 52.1956 156.324C52.1956 156.324 55.0558 154.464 51.787 153.176C51.787 153.176 49.063 153.033 47.2924 151.888C45.5218 150.744 43.4788 148.597 43.4788 148.597C43.4788 148.597 43.3426 145.449 42.253 146.165C41.927 146.391 41.6496 146.685 41.4384 147.03C41.2273 147.375 41.0873 147.763 41.0272 148.168L34.8982 146.737Z" fill="#2F2E41"/>
<path d="M30.068 145.612C30.068 145.612 26.6325 154.713 28.425 155.812C30.2174 156.91 49.0383 156.126 49.0383 156.126C49.0383 156.126 52.1751 154.086 48.5902 152.673C48.5902 152.673 45.6027 152.517 43.6609 151.261C41.719 150.006 39.4785 147.652 39.4785 147.652C39.4785 147.652 39.3291 144.2 38.1341 144.984C37.7766 145.232 37.4723 145.555 37.2408 145.933C37.0093 146.312 36.8556 146.737 36.7898 147.181L30.068 145.612Z" fill="#2F2E41"/>
<path d="M43.9596 87.2371C43.9596 87.2371 42.3165 103.4 41.5696 106.852C41.1001 109.126 40.8004 111.434 40.6734 113.757C40.6734 113.757 40.524 118.778 39.1797 120.191C38.7863 120.6 38.4773 121.09 38.2717 121.629C38.0662 122.169 37.9685 122.748 37.9847 123.329C37.9847 123.329 36.6404 139.178 37.3872 141.061C38.1341 142.944 39.148 145.391 38.4011 146.646C37.6543 147.901 29.1718 147.024 29.1718 146.083C29.1718 145.141 29.1718 144.357 28.7237 143.886C28.2755 143.415 28.7237 140.434 28.7237 140.434C28.7237 140.434 26.9312 126.468 28.5743 122.388C30.2174 118.308 30.9642 107.166 30.9642 107.166C30.9642 107.166 29.7693 94.4555 28.2755 92.4155C26.7818 90.3755 28.5743 83.1571 28.5743 83.1571L43.9596 87.2371Z" fill="#4E4E4E"/>
<path d="M39.7542 37.0442C39.9278 37.4598 40.3435 37.6912 40.7219 37.9102C42.915 39.1795 44.7507 41.0197 46.5593 42.8387C46.108 41.2321 46.2042 39.5104 46.8312 37.9702C47.0472 37.4448 47.3302 36.8802 47.1758 36.3314C47.0236 35.9391 46.7588 35.6064 46.4184 35.3793C45.6804 34.7797 44.909 34.2269 44.1084 33.7237C43.5491 33.3722 42.3993 32.4364 41.7574 32.5382C41.7238 33.4492 41.7062 34.2637 41.3264 35.1152C41.2363 35.3171 39.8206 37.2031 39.7542 37.0442Z" fill="#FFB8B8"/>
<path d="M47.3952 39.0621C50.7775 39.0621 53.5194 36.1816 53.5194 32.6283C53.5194 29.075 50.7775 26.1945 47.3952 26.1945C44.0128 26.1945 41.2709 29.075 41.2709 32.6283C41.2709 36.1816 44.0128 39.0621 47.3952 39.0621Z" fill="#FFB8B8"/>
<path d="M47.6939 47.8497C47.6939 47.8497 48.7395 42.3575 45.7521 40.4744C42.7647 38.5913 39.3291 36.3944 39.3291 36.3944C39.3291 36.3944 38.2835 36.2375 37.8354 38.5914C37.8354 38.5914 29.3212 40.3175 28.4249 48.7913C27.5287 57.2651 29.0224 69.6619 29.0224 69.6619C29.0224 69.6619 27.6781 80.4895 26.035 86.2956C26.035 86.2956 24.6906 87.551 30.6655 85.6679C36.6404 83.7848 47.0964 91.0032 47.0964 91.0032C47.0964 91.0032 48.142 89.9048 48.142 89.1202C48.142 88.3355 50.3826 64.4834 50.8307 62.2865C51.2788 60.0896 49.0382 48.1636 47.6939 47.8497Z" fill="#6A9F2E"/>
<path d="M45.9518 33.2911C46.3197 33.0769 46.7323 32.9615 47.1529 32.9551C47.574 32.9484 47.9852 32.8197 48.3411 32.5831C48.9196 32.1166 48.962 31.2149 49.3852 30.5909C49.9979 29.6875 51.2202 29.5787 52.2753 29.6239C52.9206 29.6516 53.6155 29.6921 54.1589 29.3254C54.7167 28.949 54.9696 28.2398 55.1577 27.5719C55.3801 26.7821 55.524 25.8162 54.9728 25.2304C54.59 24.8237 53.9859 24.7432 53.5607 24.386C53.3305 24.1926 50.2887 23.4163 47.433 22.7182C46.0114 22.3712 44.518 22.5835 43.2352 23.3149C41.9525 24.0462 40.9692 25.246 40.4715 26.6874C39.8121 28.5921 39.247 30.3819 39.3053 30.7685C39.5845 32.6187 41.142 34.0893 41.2493 35.9592C41.3516 35.4429 41.5743 34.9613 41.8974 34.5576C42.2205 34.154 42.6339 33.8409 43.1006 33.6465C43.2176 33.5864 43.3505 33.5694 43.4778 33.5984C43.6326 33.6504 43.723 33.8128 43.8207 33.9492C44.0765 34.3065 44.8803 34.8487 45.3359 34.5952C45.7436 34.3683 45.4393 33.6563 45.9518 33.2911Z" fill="#3F3D56"/>
<path d="M48.7523 67.1169C48.6241 67.249 48.5508 67.4288 48.5482 67.6174C48.5456 67.806 48.6139 67.988 48.7384 68.1239L53.0448 72.8064C53.1075 72.8745 53.1824 72.9288 53.2651 72.9662C53.3479 73.0036 53.437 73.0233 53.5271 73.0243C53.6172 73.0252 53.7066 73.0073 53.7901 72.9715C53.8735 72.9358 53.9494 72.883 54.0133 72.8162L67.1542 59.0709C67.226 58.9958 67.2809 58.9048 67.3149 58.8045C67.3489 58.7043 67.3611 58.5973 67.3507 58.4914C67.3403 58.3856 67.3075 58.2835 67.2547 58.1927C67.2019 58.1018 67.1305 58.0246 67.0456 57.9665L61.8783 54.4307C61.749 54.3414 61.5946 54.3013 61.4406 54.3173C61.2866 54.3332 61.1425 54.4041 61.0324 54.5182L48.7523 67.1169Z" fill="#3F3D56"/>
<path d="M67.2444 58.1753C67.2183 58.2174 67.1881 58.2564 67.1543 58.2919L54.0442 72.2969C53.9804 72.3637 53.9045 72.4165 53.821 72.4522C53.7376 72.4879 53.6482 72.5059 53.558 72.5049C53.4679 72.504 53.3789 72.4843 53.2961 72.4469C53.2133 72.4095 53.1384 72.3552 53.0758 72.2871L48.6766 67.4099C48.6467 67.3771 48.6197 67.3415 48.5962 67.3034C48.5228 67.4355 48.4968 67.5908 48.5229 67.7413C48.5489 67.8918 48.6254 68.0275 48.7384 68.124L53.0449 72.8064C53.1075 72.8745 53.1824 72.9288 53.2652 72.9662C53.348 73.0036 53.437 73.0234 53.5271 73.0243C53.6173 73.0252 53.7067 73.0073 53.7901 72.9716C53.8736 72.9358 53.9495 72.883 54.0133 72.8162L67.1543 59.0709C67.2649 58.9552 67.3342 58.803 67.3506 58.6399C67.367 58.4768 67.3295 58.3128 67.2444 58.1753H67.2444Z" fill="#717171"/>
<path d="M66.0276 58.3447L65.4929 57.9865C65.5492 58.092 65.5699 58.2143 65.5516 58.3337C65.5332 58.4531 65.477 58.5624 65.392 58.6439C65.3069 58.7254 65.1981 58.7743 65.0833 58.7825C64.9685 58.7907 64.8544 58.7579 64.7596 58.6893L61.2991 56.19C61.2204 56.1332 61.1585 56.0545 61.1204 55.9626C61.0823 55.8707 61.0695 55.7694 61.0836 55.6702C61.0976 55.5711 61.1379 55.4781 61.1998 55.4018C61.2617 55.3256 61.3427 55.2691 61.4337 55.2389L61.1582 55.0543C61.1225 55.0304 61.08 55.02 61.0378 55.025C60.9957 55.03 60.9565 55.05 60.9267 55.0817L49.2853 67.1002C49.268 67.1187 49.2543 67.1406 49.2451 67.1647C49.2359 67.1888 49.2314 67.2146 49.2318 67.2405C49.2323 67.2665 49.2376 67.2921 49.2476 67.3159C49.2576 67.3396 49.272 67.361 49.29 67.3788L53.5179 71.7066C53.5529 71.7413 53.5995 71.7603 53.6476 71.7596C53.6958 71.7589 53.7418 71.7386 53.7759 71.7028L66.0589 58.6469C66.0785 58.6263 66.0935 58.6013 66.1028 58.5738C66.112 58.5463 66.1153 58.5169 66.1123 58.4879C66.1093 58.4589 66.1001 58.431 66.0855 58.4062C66.0708 58.3814 66.0511 58.3604 66.0276 58.3447V58.3447Z" fill="white"/>
<path d="M52.5917 64.4464L56.163 67.9838L64.6572 59.1672L60.3462 56.2195L52.5917 64.4464Z" fill="#E6E6E6"/>
<path d="M64.3271 61.343C64.3507 61.3666 64.382 61.3798 64.4145 61.3798C64.4471 61.3798 64.4784 61.3666 64.5019 61.343L65.2447 60.5627C65.2679 60.5383 65.2809 60.5053 65.2809 60.4709C65.2809 60.4364 65.2679 60.4034 65.2447 60.3791C65.2212 60.3555 65.1899 60.3423 65.1574 60.3423C65.1248 60.3423 65.0935 60.3555 65.07 60.3791L64.3271 61.1594C64.304 61.1838 64.291 61.2168 64.291 61.2512C64.291 61.2856 64.304 61.3187 64.3271 61.343V61.343Z" fill="#3F3D56"/>
<path d="M63.0758 62.6576C63.099 62.6819 63.1304 62.6956 63.1632 62.6956C63.196 62.6956 63.2274 62.6819 63.2506 62.6576L63.9934 61.8772C64.0165 61.8529 64.0294 61.8199 64.0293 61.7855C64.0293 61.7511 64.0163 61.7182 63.9931 61.6939C63.97 61.6696 63.9387 61.6559 63.906 61.6559C63.8732 61.6558 63.8418 61.6694 63.8186 61.6936L63.0758 62.474C63.0527 62.4984 63.0397 62.5314 63.0397 62.5658C63.0397 62.6002 63.0527 62.6332 63.0758 62.6576V62.6576Z" fill="#3F3D56"/>
<path d="M52.6743 68.359C53.135 68.359 53.5085 67.9667 53.5085 67.4827C53.5085 66.9986 53.135 66.6063 52.6743 66.6063C52.2135 66.6063 51.84 66.9986 51.84 67.4827C51.84 67.9667 52.2135 68.359 52.6743 68.359Z" fill="#6A9F2E"/>
<path d="M30.5161 62.6004C30.5161 62.6004 29.4705 69.505 33.8023 68.8773C33.8023 68.8773 50.98 64.7973 51.8763 65.7388C52.7725 66.6804 58.3443 67.0009 58.0536 63.0314C57.762 59.0486 52.175 61.345 52.175 61.345C52.175 61.345 43.5114 62.6004 41.719 61.6588C39.9265 60.7173 34.8479 61.0311 34.8479 61.0311L30.5161 62.6004Z" fill="#FFB8B8"/>
<path d="M36.6404 40.7882C36.6404 40.7882 29.9186 41.5728 29.9186 51.7727V64.7972L38.1341 61.188C38.1341 61.188 41.5696 52.7143 41.2709 50.3604C40.9722 48.0066 41.1215 41.102 36.6404 40.7882Z" fill="#6A9F2E"/>
<path d="M92.7976 13.112L93.9597 16.0124L95.1218 13.112H95.7297V16.6667H95.261V15.2824L95.3049 13.7883L94.1379 16.6667H93.7791L92.6145 13.7956L92.6609 15.2824V16.6667H92.1921V13.112H92.7976ZM98.1174 16.6667C98.0914 16.6146 98.0702 16.5218 98.054 16.3884C97.844 16.6065 97.5933 16.7155 97.302 16.7155C97.0416 16.7155 96.8276 16.6423 96.6599 16.4958C96.4939 16.3477 96.4109 16.1605 96.4109 15.9343C96.4109 15.6592 96.5151 15.446 96.7234 15.2946C96.9333 15.1416 97.2279 15.0651 97.6072 15.0651H98.0466V14.8576C98.0466 14.6997 97.9994 14.5744 97.905 14.4816C97.8106 14.3872 97.6715 14.34 97.4875 14.34C97.3264 14.34 97.1913 14.3807 97.0823 14.4621C96.9732 14.5435 96.9187 14.6419 96.9187 14.7575H96.4646C96.4646 14.6257 96.511 14.4987 96.6038 14.3766C96.6982 14.253 96.8251 14.1553 96.9846 14.0837C97.1458 14.0121 97.3223 13.9763 97.5144 13.9763C97.8188 13.9763 98.0572 14.0528 98.2297 14.2057C98.4023 14.3571 98.4918 14.5663 98.4983 14.8332V16.049C98.4983 16.2915 98.5292 16.4844 98.5911 16.6276V16.6667H98.1174ZM97.3679 16.3224C97.5095 16.3224 97.6438 16.2858 97.7708 16.2126C97.8977 16.1393 97.9897 16.0441 98.0466 15.9269V15.3849H97.6926C97.1392 15.3849 96.8625 15.5469 96.8625 15.8708C96.8625 16.0124 96.9097 16.1231 97.0042 16.2028C97.0986 16.2826 97.2198 16.3224 97.3679 16.3224ZM100.744 15.966C100.744 15.8439 100.698 15.7495 100.605 15.6828C100.514 15.6144 100.354 15.5558 100.124 15.507C99.8964 15.4582 99.7149 15.3996 99.5798 15.3312C99.4464 15.2629 99.3471 15.1815 99.282 15.0871C99.2185 14.9927 99.1868 14.8804 99.1868 14.7502C99.1868 14.5337 99.2779 14.3506 99.4602 14.2009C99.6441 14.0511 99.8785 13.9763 100.163 13.9763C100.463 13.9763 100.705 14.0536 100.891 14.2082C101.078 14.3628 101.172 14.5606 101.172 14.8015H100.718C100.718 14.6778 100.665 14.5711 100.559 14.4816C100.455 14.3921 100.323 14.3474 100.163 14.3474C99.9989 14.3474 99.8704 14.3832 99.7776 14.4548C99.6848 14.5264 99.6384 14.62 99.6384 14.7355C99.6384 14.8446 99.6816 14.9268 99.7678 14.9821C99.8541 15.0375 100.01 15.0904 100.234 15.1408C100.46 15.1913 100.643 15.2515 100.783 15.3215C100.923 15.3915 101.027 15.4761 101.094 15.5754C101.162 15.673 101.196 15.7927 101.196 15.9343C101.196 16.1703 101.102 16.3599 100.913 16.5031C100.724 16.6447 100.479 16.7155 100.178 16.7155C99.9664 16.7155 99.7792 16.6781 99.6165 16.6032C99.4537 16.5283 99.3259 16.4242 99.2332 16.2907C99.142 16.1556 99.0964 16.0099 99.0964 15.8537H99.5481C99.5562 16.0051 99.6165 16.1255 99.7288 16.215C99.8427 16.3029 99.9924 16.3469 100.178 16.3469C100.349 16.3469 100.486 16.3127 100.588 16.2443C100.692 16.1743 100.744 16.0816 100.744 15.966ZM103.415 16.4055C103.24 16.6122 102.982 16.7155 102.641 16.7155C102.36 16.7155 102.145 16.6341 101.997 16.4714C101.85 16.307 101.776 16.0645 101.775 15.7438V14.0251H102.226V15.7316C102.226 16.132 102.389 16.3322 102.715 16.3322C103.06 16.3322 103.289 16.2036 103.403 15.9465V14.0251H103.855V16.6667H103.425L103.415 16.4055ZM105.281 15.4435L104.997 15.739V16.6667H104.546V12.9167H104.997V15.1848L105.239 14.8942L106.062 14.0251H106.611L105.583 15.1286L106.731 16.6667H106.201L105.281 15.4435ZM107.815 15.4435L107.531 15.739V16.6667H107.08V12.9167H107.531V15.1848L107.773 14.8942L108.596 14.0251H109.145L108.117 15.1286L109.265 16.6667H108.735L107.815 15.4435ZM111.242 16.6667C111.216 16.6146 111.195 16.5218 111.179 16.3884C110.969 16.6065 110.718 16.7155 110.427 16.7155C110.167 16.7155 109.953 16.6423 109.785 16.4958C109.619 16.3477 109.536 16.1605 109.536 15.9343C109.536 15.6592 109.64 15.446 109.848 15.2946C110.058 15.1416 110.353 15.0651 110.732 15.0651H111.172V14.8576C111.172 14.6997 111.124 14.5744 111.03 14.4816C110.936 14.3872 110.796 14.34 110.613 14.34C110.451 14.34 110.316 14.3807 110.207 14.4621C110.098 14.5435 110.044 14.6419 110.044 14.7575H109.59C109.59 14.6257 109.636 14.4987 109.729 14.3766C109.823 14.253 109.95 14.1553 110.11 14.0837C110.271 14.0121 110.447 13.9763 110.639 13.9763C110.944 13.9763 111.182 14.0528 111.355 14.2057C111.527 14.3571 111.617 14.5663 111.623 14.8332V16.049C111.623 16.2915 111.654 16.4844 111.716 16.6276V16.6667H111.242ZM110.493 16.3224C110.635 16.3224 110.769 16.2858 110.896 16.2126C111.023 16.1393 111.115 16.0441 111.172 15.9269V15.3849H110.818C110.264 15.3849 109.988 15.5469 109.988 15.8708C109.988 16.0124 110.035 16.1231 110.129 16.2028C110.224 16.2826 110.345 16.3224 110.493 16.3224ZM112.759 14.0251L112.773 14.3571C112.975 14.1032 113.239 13.9763 113.564 13.9763C114.122 13.9763 114.404 14.2912 114.409 14.9211V16.6667H113.957V14.9186C113.956 14.7282 113.912 14.5874 113.825 14.4963C113.741 14.4051 113.608 14.3596 113.427 14.3596C113.281 14.3596 113.152 14.3986 113.042 14.4767C112.931 14.5549 112.845 14.6574 112.783 14.7844V16.6667H112.331V14.0251H112.759ZM119.133 16.6667H118.662L116.872 13.9274V16.6667H116.401V13.112H116.872L118.667 15.8635V13.112H119.133V16.6667ZM121.526 16.6667C121.5 16.6146 121.478 16.5218 121.462 16.3884C121.252 16.6065 121.002 16.7155 120.71 16.7155C120.45 16.7155 120.236 16.6423 120.068 16.4958C119.902 16.3477 119.819 16.1605 119.819 15.9343C119.819 15.6592 119.923 15.446 120.132 15.2946C120.342 15.1416 120.636 15.0651 121.015 15.0651H121.455V14.8576C121.455 14.6997 121.408 14.5744 121.313 14.4816C121.219 14.3872 121.08 14.34 120.896 14.34C120.735 14.34 120.6 14.3807 120.49 14.4621C120.381 14.5435 120.327 14.6419 120.327 14.7575H119.873C119.873 14.6257 119.919 14.4987 120.012 14.3766C120.106 14.253 120.233 14.1553 120.393 14.0837C120.554 14.0121 120.731 13.9763 120.923 13.9763C121.227 13.9763 121.465 14.0528 121.638 14.2057C121.81 14.3571 121.9 14.5663 121.906 14.8332V16.049C121.906 16.2915 121.937 16.4844 121.999 16.6276V16.6667H121.526ZM120.776 16.3224C120.918 16.3224 121.052 16.2858 121.179 16.2126C121.306 16.1393 121.398 16.0441 121.455 15.9269V15.3849H121.101C120.547 15.3849 120.271 15.5469 120.271 15.8708C120.271 16.0124 120.318 16.1231 120.412 16.2028C120.507 16.2826 120.628 16.3224 120.776 16.3224ZM123.039 14.0251L123.052 14.3181C123.245 14.0902 123.506 13.9763 123.835 13.9763C124.205 13.9763 124.456 14.1179 124.59 14.4011C124.677 14.2741 124.791 14.1716 124.931 14.0934C125.073 14.0153 125.24 13.9763 125.432 13.9763C126.011 13.9763 126.306 14.2831 126.316 14.8967V16.6667H125.864V14.9235C125.864 14.7347 125.821 14.5939 125.735 14.5012C125.648 14.4068 125.503 14.3596 125.3 14.3596C125.132 14.3596 124.993 14.41 124.883 14.5109C124.772 14.6102 124.708 14.7445 124.69 14.9138V16.6667H124.236V14.9357C124.236 14.5516 124.048 14.3596 123.672 14.3596C123.375 14.3596 123.173 14.4857 123.064 14.738V16.6667H122.612V14.0251H123.039ZM128.63 16.6667C128.604 16.6146 128.583 16.5218 128.567 16.3884C128.357 16.6065 128.106 16.7155 127.815 16.7155C127.554 16.7155 127.34 16.6423 127.173 16.4958C127.007 16.3477 126.924 16.1605 126.924 15.9343C126.924 15.6592 127.028 15.446 127.236 15.2946C127.446 15.1416 127.741 15.0651 128.12 15.0651H128.559V14.8576C128.559 14.6997 128.512 14.5744 128.418 14.4816C128.323 14.3872 128.184 14.34 128 14.34C127.839 14.34 127.704 14.3807 127.595 14.4621C127.486 14.5435 127.431 14.6419 127.431 14.7575H126.977C126.977 14.6257 127.024 14.4987 127.116 14.3766C127.211 14.253 127.338 14.1553 127.497 14.0837C127.658 14.0121 127.835 13.9763 128.027 13.9763C128.331 13.9763 128.57 14.0528 128.742 14.2057C128.915 14.3571 129.004 14.5663 129.011 14.8332V16.049C129.011 16.2915 129.042 16.4844 129.104 16.6276V16.6667H128.63ZM127.881 16.3224C128.022 16.3224 128.156 16.2858 128.283 16.2126C128.41 16.1393 128.502 16.0441 128.559 15.9269V15.3849H128.205C127.652 15.3849 127.375 15.5469 127.375 15.8708C127.375 16.0124 127.422 16.1231 127.517 16.2028C127.611 16.2826 127.733 16.3224 127.881 16.3224Z" fill="#797979"/>
<path d="M95.6353 42.9612H94.1461L93.8116 43.8889H93.3282L94.6856 40.3342H95.0958L96.4556 43.8889H95.9747L95.6353 42.9612ZM94.2877 42.5754H95.4962L94.8907 40.9128L94.2877 42.5754ZM97.3541 43.8889H96.9024V40.1389H97.3541V43.8889ZM99.71 43.8889C99.684 43.8368 99.6628 43.7441 99.6465 43.6106C99.4366 43.8287 99.1859 43.9377 98.8946 43.9377C98.6342 43.9377 98.4201 43.8645 98.2525 43.718C98.0865 43.5699 98.0035 43.3827 98.0035 43.1565C98.0035 42.8814 98.1076 42.6682 98.316 42.5168C98.5259 42.3639 98.8205 42.2874 99.1998 42.2874H99.6392V42.0798C99.6392 41.922 99.592 41.7966 99.4976 41.7039C99.4032 41.6095 99.2641 41.5623 99.0801 41.5623C98.919 41.5623 98.7839 41.6029 98.6749 41.6843C98.5658 41.7657 98.5113 41.8642 98.5113 41.9797H98.0572C98.0572 41.8479 98.1036 41.7209 98.1964 41.5989C98.2908 41.4752 98.4177 41.3775 98.5772 41.3059C98.7383 41.2343 98.9149 41.1985 99.107 41.1985C99.4114 41.1985 99.6498 41.275 99.8223 41.428C99.9949 41.5793 100.084 41.7885 100.091 42.0554V43.2712C100.091 43.5138 100.122 43.7066 100.184 43.8499V43.8889H99.71ZM98.9605 43.5447C99.1021 43.5447 99.2364 43.5081 99.3633 43.4348C99.4903 43.3616 99.5823 43.2664 99.6392 43.1492V42.6072H99.2852C98.7318 42.6072 98.4551 42.7691 98.4551 43.093C98.4551 43.2346 98.5023 43.3453 98.5967 43.425C98.6911 43.5048 98.8124 43.5447 98.9605 43.5447ZM101.224 41.2473L101.236 41.5403C101.43 41.3124 101.691 41.1985 102.02 41.1985C102.389 41.1985 102.641 41.3401 102.774 41.6233C102.862 41.4963 102.976 41.3938 103.116 41.3157C103.257 41.2375 103.424 41.1985 103.616 41.1985C104.196 41.1985 104.49 41.5053 104.5 42.1189V43.8889H104.048V42.1458C104.048 41.9569 104.005 41.8162 103.919 41.7234C103.833 41.629 103.688 41.5818 103.484 41.5818C103.317 41.5818 103.178 41.6322 103.067 41.7332C102.956 41.8324 102.892 41.9667 102.874 42.136V43.8889H102.42V42.158C102.42 41.7738 102.232 41.5818 101.856 41.5818C101.56 41.5818 101.357 41.7079 101.248 41.9602V43.8889H100.796V41.2473H101.224ZM106.815 43.8889C106.788 43.8368 106.767 43.7441 106.751 43.6106C106.541 43.8287 106.29 43.9377 105.999 43.9377C105.739 43.9377 105.525 43.8645 105.357 43.718C105.191 43.5699 105.108 43.3827 105.108 43.1565C105.108 42.8814 105.212 42.6682 105.42 42.5168C105.63 42.3639 105.925 42.2874 106.304 42.2874H106.744V42.0798C106.744 41.922 106.697 41.7966 106.602 41.7039C106.508 41.6095 106.369 41.5623 106.185 41.5623C106.023 41.5623 105.888 41.6029 105.779 41.6843C105.67 41.7657 105.616 41.8642 105.616 41.9797H105.162C105.162 41.8479 105.208 41.7209 105.301 41.5989C105.395 41.4752 105.522 41.3775 105.682 41.3059C105.843 41.2343 106.019 41.1985 106.211 41.1985C106.516 41.1985 106.754 41.275 106.927 41.428C107.099 41.5793 107.189 41.7885 107.195 42.0554V43.2712C107.195 43.5138 107.226 43.7066 107.288 43.8499V43.8889H106.815ZM106.065 43.5447C106.207 43.5447 106.341 43.5081 106.468 43.4348C106.595 43.3616 106.687 43.2664 106.744 43.1492V42.6072H106.39C105.836 42.6072 105.56 42.7691 105.56 43.093C105.56 43.2346 105.607 43.3453 105.701 43.425C105.796 43.5048 105.917 43.5447 106.065 43.5447ZM108.516 40.6077V41.2473H109.009V41.5964H108.516V43.2346C108.516 43.3404 108.538 43.4202 108.582 43.4739C108.626 43.526 108.701 43.552 108.807 43.552C108.859 43.552 108.93 43.5422 109.022 43.5227V43.8889C108.903 43.9215 108.787 43.9377 108.675 43.9377C108.473 43.9377 108.321 43.8767 108.218 43.7546C108.116 43.6326 108.065 43.4592 108.065 43.2346V41.5964H107.584V41.2473H108.065V40.6077H108.516Z" fill="#797979"/>
</g>
<defs>
<clipPath id="clip0">
<rect width="188" height="161" fill="white"/>
</clipPath>
</defs>
</svg>
